# xmcd
#
# Track frame offsets: 
#        150
#        27457
#        41032
#        63397
#        88547
#        123892
#        145790
#        171605
#        191115
#        205920
#
# Disc length: 3106 seconds
#
# Revision: 9
# Processed by: cddbd v1.5.2PL0 Copyright (c) Steve Scherf et al.
# Submitted via: ExactAudioCopy v0.99pb3
#
DISCID=930c200a
DTITLE=Patricia Barber - Verse
DYEAR=2002
DGENRE=Jazz - Vocal
TTITLE0=The Moon
TTITLE1=Lost In This Love
TTITLE2=Clues
TTITLE3=Pieces
TTITLE4=I Could Eat Your Words
TTITLE5=The Fire
TTITLE6=Regular Pleasures
TTITLE7=Dansons La Gigue
TTITLE8=You Gotta Go Home
TTITLE9=If I Were Blue
EXTD=
EXTT0=
EXTT1=
EXTT2=
EXTT3=
EXTT4=
EXTT5=
EXTT6=
EXTT7=
EXTT8=
EXTT9=
PLAYORDER=
